<?xml version="1.0" encoding="UTF-8" standalone="no"?>
<!-- Generator: Adobe Illustrator 23.0.1, SVG Export Plug-In . SVG Version: 6.00 Build 0)  -->

<svg
   version="1.1"
   x="0px"
   y="0px"
   viewBox="0 0 740.50598 421.48599"
   xml:space="preserve"
   id="svg1"
   sodipodi:docname="cz.svg"
   inkscape:version="1.4 (86a8ad7, 2024-10-11)"
   width="740.50598"
   height="421.48599"
   xmlns:inkscape="http://www.inkscape.org/namespaces/inkscape"
   xmlns:sodipodi="http://sodipodi.sourceforge.net/DTD/sodipodi-0.dtd"
   xmlns="http://www.w3.org/2000/svg"
   xmlns:svg="http://www.w3.org/2000/svg"><defs
   id="defs1" /><sodipodi:namedview
   id="namedview1"
   pagecolor="#ffffff"
   bordercolor="#000000"
   borderopacity="0.25"
   inkscape:showpageshadow="2"
   inkscape:pageopacity="0.0"
   inkscape:pagecheckerboard="0"
   inkscape:deskcolor="#d1d1d1"
   inkscape:zoom="3.025"
   inkscape:cx="370.41322"
   inkscape:cy="210.7438"
   inkscape:window-width="3840"
   inkscape:window-height="2054"
   inkscape:window-x="-11"
   inkscape:window-y="-11"
   inkscape:window-maximized="1"
   inkscape:current-layer="svg1" />
<style
   type="text/css"
   id="style1">
	.st0{fill:none;stroke:#000000;stroke-width:0.5;stroke-linecap:round;stroke-linejoin:round;}
	.st1{font-family:'Roboto-Regular';}
	.st2{font-size:14px;}
</style>
<g
   id="Czech_Republic"
   transform="translate(-29.750038,-89.261001)">
	<path
   class="st0"
   d="m 329.254,121.047 2.33,0.081 3.959,-1.111 12.499,0.923 0.226,-1.497 -0.136,-6.024 -0.124,-0.493 -0.068,-0.664 0.102,-0.969 0.305,-0.592 1.075,-1.22 0.339,-0.879 -0.124,-5.045 -1.663,-2.434 -1.776,-1.41 -0.464,-1.968 h 0.011 l 0.498,-0.593 0.554,-0.458 0.622,-0.297 0.622,-0.135 1.584,-1.159 0.509,-0.8 0.305,-1.434 2.081,1.919 5.543,1.223 0.928,1.716 1.289,1.276 1.538,0.764 1.233,-0.252 0.362,-1.77 v -0.018 l 0.984,-2.274 1.414,-0.998 1.278,0.647 0.509,2.642 1.029,2.551 6.233,0.099 2.918,1.455 1.753,2.847 -0.113,1.679 -0.95,1.822 -0.769,3.194 0.328,2.466 1.018,3.058 1.289,2.868 1.165,1.882 2.183,1.756 1.98,0.878 1.663,1.379 1.312,3.25 0.034,1.683 -0.305,1.736 -0.091,1.646 0.701,1.431 1.366,0.434 0.184,0.058 1.21,-1.279 1.041,-1.843 1.018,-1.271 4.559,-0.385 21.899,7.692 1.244,0.831 1.448,2.225 0.803,0.786 1.154,0.366 9.095,-2.207 2.715,0.259 0.238,1.18 0.351,1.054 5.531,9.439 0.701,0.25 3.031,-0.089 6.482,-2.446 1.81,0.259 1.471,1.428 1.425,2.713 0.95,2.337 0.6,2.381 -0.249,2.051 -1.572,1.284 -0.215,0.561 -0.091,0.553 0.079,0.544 0.226,0.517 4.649,-0.855 6.787,-6.589 4.615,0.473 3.461,2.657 1.663,0.785 1.844,-0.428 1.335,-1.685 0.792,-2.203 0.803,-1.731 1.414,-0.303 3.97,0.08 3.575,0.919 3.36,1.909 9.321,9.903 0.995,3.286 -3.439,1.416 0.419,1.3 v 0.57 l -0.305,0.481 -0.475,0.997 -0.17,0.872 -0.147,1.326 0.011,1.014 0.306,-0.098 -0.939,1.316 -2.251,2.232 -1.029,1.449 -1.878,0.418 -3.507,-0.978 -1.719,0.56 -0.848,2.222 -1.64,1.413 -1.923,1.146 -1.685,1.413 -0.6,0.24 -1.007,0.64 -0.667,0.062 0.532,1.91 0.204,0.524 -2.183,-0.497 -0.86,2.726 1.029,3.071 3.552,0.63 1.414,4.427 0.52,0.993 1.403,1.135 0.803,-0.177 0.781,-0.683 1.278,-0.417 h 4.988 l 1.041,0.328 0.769,1.596 0.079,1.596 -0.091,1.56 0.283,1.497 1.946,2.596 4.875,1.789 2.432,1.709 1.572,2.222 2.783,5.079 1.584,2.158 1.391,2.52 3.314,3.465 1.188,3.234 1.244,5.828 1.029,2.136 1.923,2.523 3.767,3.484 4.593,2.389 4.445,-0.326 3.371,-4.612 2.432,-1.764 1.335,-1.897 1.188,-2.313 1.968,-2.984 2.455,-2.111 2.172,-0.318 2.195,0.15 1.33,-0.34 1.226,-0.314 1.029,-0.919 1.821,-2.536 1.312,-0.91 0.961,-0.035 2.025,0.725 0.984,-0.071 0.271,-0.628 -0.023,-2.069 0.305,-0.469 1.606,0.027 0.656,0.451 0.509,1.034 1.165,1.75 1.324,0.504 0.701,-1.458 -0.215,-2.254 -1.425,-1.892 -0.158,-4.158 -1.154,-3.071 -1.991,-2.195 -2.669,-1.567 -2.047,-2.117 -1.075,-3.322 -0.814,-3.652 -1.244,-3.139 -3.507,-5.19 -0.011,-2.396 2.975,-1.811 2.5,0.32 3.088,1.858 1.618,0.974 2.534,-0.302 11.244,3.159 1.199,0.736 2.545,2.147 1.403,0.745 1.504,0.018 3.337,-0.692 1.278,0.39 -0.237,0.479 0.373,1.862 0.679,2.216 0.656,1.489 1.075,1.17 3.857,2.445 2.602,0.753 5.135,-0.15 2.262,0.965 -2.013,0.815 0.305,0.646 0.385,0.576 0.453,0.496 0.498,0.434 -0.136,2.231 0.215,2.168 0.758,1.761 1.459,1.106 1.188,-3.132 2.421,-0.186 2.387,1.938 1.018,3.184 0.554,0.371 0.588,0.133 0.577,-0.124 0.566,-0.38 3.212,-3.91 5.215,-0.478 9.785,1.734 2.534,-0.664 1.878,-1.54 3.247,-4.505 0.611,-1.399 0.283,-1.169 0.713,-0.461 1.855,0.691 0.611,0.576 2.013,2.727 0.271,0.389 0.057,0.46 -0.079,0.513 -0.249,0.54 -1.188,3.203 -0.215,1.566 0.249,1.725 1.154,1.15 1.708,3.165 -1.029,2.589 -2.217,1.926 -4.66,2.8 -2.918,1.148 -5.282,0.203 -1.199,0.609 -0.803,1.721 0.226,1.245 5.317,6.749 1.708,0.776 1.108,-0.203 0.928,-0.538 1.165,-0.273 1.437,0.388 2.975,1.481 1.538,0.326 0.045,0.167 0.023,0.159 -0.023,0.132 -0.045,0.123 -1.018,0.873 -0.351,0.934 0.339,0.978 1.029,1.031 1.21,1.454 0.747,1.885 0.611,2.105 0.86,2.034 1.233,1.708 7.092,7.074 3.982,0.844 3.982,-1.214 3.224,-2.885 1.991,-0.519 4.389,-0.132 3.563,-1.065 0.554,-0.748 -0.192,-1.699 -0.769,-1.18 -0.939,-0.026 -0.871,0.273 -0.577,-0.246 -0.486,-3.857 1.82,0.456 1.551,0.389 6.391,4.191 -0.713,3.142 1.425,1.654 6.991,1.328 1.663,0.923 3.45,2.981 1.289,0.58 2.568,0.536 1.301,0.967 0.464,0.932 0.758,2.636 0.611,1.151 2.172,1.783 1.584,-0.316 3.065,-2.679 -0.124,-0.29 -0.147,-0.193 -0.192,-0.097 h -0.238 l 4.412,-0.545 4.231,1.511 8.133,4.505 2.545,-0.009 4.31,-2.766 1.617,0.984 0.679,3.082 -0.271,2.607 0.475,2.08 2.907,1.57 -3.009,3.499 0.045,4.549 1.9,5.151 2.579,5.323 1.097,4.926 0.69,1.268 1.459,1.023 3.371,0.297 1.561,0.472 1.425,1.172 2.149,2.544 1.38,0.83 1.595,-0.131 1.708,-0.743 1.708,-0.297 1.64,1.224 0.453,1.319 0.735,5.817 0.509,1.624 1.29,2.95 0.486,1.527 1.572,7.195 0.317,3.486 -0.464,2.814 -4.479,0.122 -2.047,0.784 -4.491,4.145 -3.065,0.174 -3.167,-0.975 -3.586,-1.811 -0.758,-0.157 -0.758,0.157 -3.122,1.654 -4.841,-0.705 -2.251,1.428 -0.566,1.384 -0.271,3.133 -0.554,1.479 -0.905,0.922 -3.597,1.939 -4.66,5.72 -2.455,1.616 -3.19,-0.721 -0.271,7.981 -2.58,2.027 -4.048,3.18 -14.728,5.758 -3.224,3.06 -2.636,4.297 -2.047,5.109 -1.391,5.495 -0.396,4.488 0.019,1.007 0.14,7.471 -0.724,3.67 -2.274,3.858 -3.224,3.011 -3.631,1.673 -5.871,-0.457 -2.647,0.414 -2.296,1.483 -1.448,2.914 -0.679,2.473 -0.848,5.16 -0.894,2.282 -2.013,1.971 -2.093,0.121 -2.308,-0.396 -2.692,0.465 -1.765,1.472 -3.778,6.521 -1.934,1.608 -21.028,8.301 -4.004,-0.627 -3.348,-3.548 -1.595,-0.773 -2.602,0.765 -2.007,1.32 -2.133,1.403 -1.9,0.361 -12.488,-6.35 -5.26,-1.376 -4.898,1.049 -5.882,4.297 -0.995,1.547 -0.645,3.135 -1.572,2.001 -3.767,3.27 -2.692,4.599 -5.531,15.994 -1.256,2.307 -1.731,2.118 -0.271,3.144 -3.778,-4.406 -1.516,-10.969 -2.59,-3.651 -1.799,-0.137 -4.208,1.5 -2.104,0.257 -2.013,-0.754 -3.959,-2.632 -1.674,-0.574 -4.163,0.172 -1.742,-0.309 -1.437,-1.012 -0.792,-1.964 -0.407,-2.385 -0.86,-2 -2.093,-0.85 -2.025,-0.24 -6.538,-1.906 -1.866,-1.202 -1.007,-0.344 -1.007,0.137 -1.979,0.842 -1.131,0.051 -3.156,-0.464 -1.9,1.271 -5.554,9.542 -1.199,1.123 -1.719,0.506 -0.611,-0.197 -1.448,-1.183 -2.274,0.343 -0.124,0.112 -15.305,-2.273 -10.113,0.609 -5.803,-2.522 -11.006,-8.034 -0.158,-0.824 v -1.151 l -0.577,-0.713 -1.855,0.481 -0.113,-1.753 -0.814,-0.747 -1.233,-0.052 -1.38,0.327 1.12,-1.487 -0.916,0.06 -0.815,-0.37 -1.199,-0.877 -2.093,-0.155 -0.746,-0.318 -0.543,-0.851 -0.441,-2.046 -0.634,-0.482 -3.348,0.009 -0.95,0.232 -3.891,2.063 -1.844,0.584 h -2.523 l -2.455,-0.584 -8.495,-4.807 -6.517,-2.54 -2.51,-0.978 -5.407,-4.7 -2.353,-1.352 -4.864,-1.645 -5.26,-2.688 -2.443,-0.698 -5.124,-0.06 -0.543,-0.379 -0.452,-0.827 -0.554,-0.69 -0.837,0.009 -0.441,0.681 -0.272,2.24 -0.362,0.879 -1.516,1.826 -0.566,0.362 -8.348,2.256 -2.172,-0.043 0.724,-2.377 0.045,-2.265 -0.464,-2.266 -0.803,-2.353 -8.518,-0.698 -6.086,-2.095 -2.398,0.31 -0.351,0.276 -0.17,0.56 v 0.776 l 0.102,0.905 -1.493,3.516 -0.045,4.746 0.453,5.096 -0.011,4.603 -2.319,10.418 -0.792,2.096 -0.181,1.159 0.215,1.047 0.475,1.314 0.486,1.073 0.238,0.3 -1.256,2.909 -2.217,0.206 -5.656,-2.325 -5.712,-0.79 -1.651,0.635 -0.645,1.579 -0.441,2.016 -1.097,1.947 -0.554,3.173 -5.758,5.074 -2.07,3.367 -0.396,4.474 0.056,5.062 -0.554,4.302 -0.496,0.497 -1.699,1.704 -1.798,-0.12 -0.86,-1.081 -0.645,-1.556 -1.176,-1.561 -0.713,-0.158 -1.674,0.586 -0.848,-0.094 -0.351,-0.697 -0.011,-1.103 -0.136,-1.056 -0.701,-0.62 -1.686,0.137 -3.28,1.583 -1.64,0.368 -1.289,-0.316 -4.366,-2.293 -2.624,-3.098 -1.595,1.104 -2.455,6.532 -1.731,1.783 -5.69,2.458 -2.206,1.773 -0.86,0.342 -1.052,0.12 -10.859,-3.846 -15.508,-1.744 -3.721,-1.565 -0.916,-0.821 -1.889,-2.361 -0.475,-0.907 -0.509,-2.259 0.204,-0.479 0.622,-0.231 0.735,-1.549 0.328,-0.24 0.532,0.103 0.498,-0.154 0.204,-1.036 -0.283,-1.01 -0.656,-0.462 -0.758,-0.308 -0.554,-0.522 -0.701,-1.362 -1.821,-2.802 -0.962,-1.046 -7.364,-4.063 -2.398,-1.998 -1.991,-1.561 -2.081,-1.141 -4.4,-1.184 -2.138,-2.223 -5.283,-10.564 -2.545,-3.98 -1.538,-0.86 -4.078,-0.645 -2.07,-0.98 -1.866,-1.866 -1.708,-2.598 -1.165,-3.03 -0.271,-3.151 -1.991,0.224 -1.866,-1.033 -1.855,-1.49 -1.923,-1.18 -1.806,-0.384 -0.705,-0.15 -1.516,0.698 -1.041,1.835 -1.131,2.902 -2.556,-1.231 -3.461,-2.489 -3.145,-2.955 -1.572,-2.56 -0.068,-4.682 -1.222,-2.907 -4.649,-4.746 -3.326,-4.464 -1.335,-1.157 -2.195,-0.847 -6.617,-0.311 -3.099,-1.815 -1.742,-2.809 -1.437,-3.294 -10.248,-13.961 -1.357,-0.771 -0.023,-0.026 -3.495,-4.168 -0.498,-1.56 -0.147,-1.621 -0.611,-1.37 -1.9,-0.789 -3.077,-3.27 -1.584,-1.284 -1.855,-0.998 -4.185,-1.154 -1.504,0.477 0.486,2.161 -2.047,0.278 -6.448,-0.946 -2.172,-0.79 -1.731,-1.797 -3.586,-8.051 -2.206,-2.286 -5.045,-2.382 -2.138,-1.783 -1.244,-2.435 -0.543,-2.732 -0.317,-5.527 -0.147,-2.839 -0.814,-0.662 -1.154,0.165 -1.233,-0.375 -1.188,-1.246 -0.86,-1.263 -0.69,-1.508 -0.701,-2.022 -0.441,-1.979 -0.509,-3.742 -0.769,-1.832 -1.154,-1.274 -2.613,-1.44 -1.12,-1.362 0.079,-0.41 0.52,-1.327 -0.871,-0.428 -0.283,-0.227 0.927,-2.07 -0.079,-2.245 -0.905,-1.791 -1.516,-0.795 -3.642,-1.748 -1.674,-1.145 -1.572,-1.425 -2.262,-3.262 -1.131,-2.17 -0.543,-1.785 1.29,-2.547 4.525,-1.926 1.742,-1.769 0.351,-2.786 0.057,-3.558 0.667,-2.393 2.195,0.675 0.803,-2.622 2.522,-4.676 0.882,-2.598 0.339,-3.301 -0.679,-1.229 -1.561,-0.606 -4.479,-2.635 0.125,-1.845 0.758,-2.294 -0.283,-2.488 -1.844,-1.759 -4.027,-0.422 -1.674,-1.654 h -0.113 l -16.56,-8.89 -0.351,-1.083 -0.023,-1.55 -0.226,-1.745 -0.973,-1.683 -1.584,-1.375 -1.753,-1.014 -1.55,-1.42 -0.95,-2.584 -0.068,-2.558 0.769,-3.883 -0.317,-2.569 -0.837,-2.031 -1.233,-1.908 -2.681,-2.951 -5.407,-3.386 -1.131,-2.034 1.369,-2.07 1.131,-0.743 0.735,-0.796 0.204,-2.195 -0.407,-2.443 -0.882,-1.523 -2.531,-2.65 2.758,0.204 5.25,0.389 2.104,1.497 0.645,1.585 -0.034,2.939 0.43,1.336 1.222,1.079 1.595,0.495 3.145,0.08 0.781,0.433 0.362,0.619 -0.056,0.787 -0.486,0.964 -0.17,0.027 -0.147,0.053 -0.147,0.097 -0.136,0.124 -0.294,0.327 -0.102,0.345 0.113,0.38 0.283,0.398 1.912,1.936 0.475,0.645 0.452,1.114 0.192,0.999 0.113,0.884 1.312,4.708 1.109,1.731 1.866,0.238 1.527,-1.112 v -1.519 l -0.633,-1.828 -0.328,-2.12 0.339,-3.04 0.588,-1.609 2.16,-2.776 0.294,-2.715 0.894,-1.336 1.222,-0.858 1.244,-1.31 3.394,-6.189 1.176,-1.169 3.213,-1.807 1.301,-1.17 0.396,-0.23 0.984,0.036 0.441,-0.239 0.238,-0.629 -0.068,-0.674 -0.147,-0.576 -0.023,-0.354 0.294,-0.771 0.226,-0.869 0.385,-0.851 0.814,-0.709 3.031,-2.608 4.412,-1.304 8.19,-0.612 5.848,1.065 1.425,-0.16 1.222,-1.18 2.421,-3.763 1.403,-1.394 1.787,-0.648 1.753,-0.107 1.957,0.275 0.679,-0.266 1.538,-1.021 0.984,-0.204 0.916,0.275 10.135,6.188 3.744,0.213 0.882,-0.871 2.387,-2.359 1.55,-1.838 0.713,-3.135 0.713,-7.011 0.905,-0.631 0.916,-0.222 0.905,0.196 0.848,0.64 0.961,0.285 1.018,0.089 1.029,-0.08 0.995,-0.276 h 0.011 l 0.023,-0.018 3.088,-1.067 5.769,0.338 2.692,-2.019 1.572,-2.855 3.642,-9.765 2.127,0.196 1.776,1.247 1.821,0.81 2.296,-1.176 1.165,-3.492 0.611,-1.096 4.106,-2.923 0.656,-0.713 0.068,-0.624 0.305,-0.214 1.335,0.49 0.588,0.669 1.538,2.594 0.724,0.909 2.443,1.203 2.036,-0.508 1.855,-1.693 1.9,-2.38 1.086,-0.615 0.656,-0.811 0.102,-1.043 -0.633,-1.382 1.821,-1.383 1.459,-1.891 0.43,-2.329 -1.267,-2.651 4.479,-2.715 4.966,-0.938 9.83,0.054 2.11,-0.42 4.163,-1.546 2.364,-0.241 5.022,0.563 1.968,-0.402 3.167,-1.984 0.667,-0.018 0.633,-0.223 0.747,-1.072 0.057,-0.912 -0.26,-1.216 -0.136,-1.466 0.464,-1.681 1.007,-1.243 0.928,-0.036 1.063,0.322 1.38,-0.206 1.12,-0.841 1.674,-2.147 1.176,-0.841 2.138,-0.465 4.004,0.519 2.104,-0.143 17.058,-7.852 1.335,-1.254 2.002,-3.029 1.188,-1.174 3.936,-0.825 8.585,0.681 3.212,-2.734 0.656,-4.323 -2.918,-1.696 -4.038,-1.194 -2.794,-2.774 0.102,-1.823 0.928,-0.647 0.17,-0.35 -2.183,-0.889 -3.699,-0.485 -1.278,-0.844 1.222,-1.77 1.538,-5.007 2.624,-2.68 3.484,-0.553 4.072,1.336 0.826,0.755 0.577,0.967 0.713,0.949 1.188,0.647 1.21,0.027 3.065,-1.362 3.97,0.225 1.244,-0.647 0.95,-2.406 0.633,1.475 0.238,1.048 0.373,1.043 1.029,1.425 1.357,0.953 2.952,0.746 1.346,1.06 1.324,1.608 0.837,1.374 0.339,1.698 -0.204,2.613 -0.848,2.091 -1.312,2.495 -0.6,2.117 1.256,0.996 6.052,-2.521 1.324,0.027 0.588,1.965 -0.634,2.305 -1.855,4.366 -0.385,3.1 0.532,1.299 3.801,1.075 1.561,0.869 4.185,3.188 4.061,0.913 2.375,0.09 1.765,-0.483 1.063,-1.226 1.041,-2.006 z"
   id="path1" />
</g>

</svg>
